<svg fill="#FFFFFF" xmlns="http://www.w3.org/2000/svg" xmlns:xlink="http://www.w3.org/1999/xlink" version="1.1" x="0px" y="0px" viewBox="0 0 100 100" enable-background="new 0 0 100 100" xml:space="preserve"><g><circle fill="#FFFFFF" cx="66.5855713" cy="47.1040344" r="1.8864233"></circle><path fill="#FFFFFF" d="M97.5459824,57.7860985c0.0445557-0.5196686-0.1426544-1.0327797-0.5115585-1.40168l-1.8141022-1.8141022   c-0.3682098-0.3682098-0.8811417-0.5555954-1.3996048-0.5117264c-0.5191574,0.0440369-0.9923706,0.3146706-1.2935715,0.7396965   l-0.9980621,1.4303513c-1.3395081-1.3395081-3.3237305-2.2805824-5.2179642-2.2805824   c-1.8942413,0-3.6751862,0.7378006-5.0143433,2.077137l-0.6376343,0.637455   c-0.5374603,0.5372887-0.8334808,1.2516022-0.8334808,2.0116806c0,0.4357796,0.1003494,0.8552399,0.2847977,1.2362938   c0,0-0.9588623,1.0030975-1.2058334,1.3327484c-0.6305542-0.6815605-1.4193878-1.1996803-2.2684937-1.483242   c-0.9785538-0.3267593-3.2976456-1.2450371-5.1877365-2.005806c5.5773621-0.2756386,8.8128357-2.4044113,8.934761-5.93573   c0.2405853-6.9658737-8.9747467-12.3259315-13.5040436-13.844883l0.5276184-5.745491   c0.0486984-0.5314159-0.1450729-1.0564423-0.5274429-1.4287968c-0.3823776-0.3723545-0.9112015-0.551796-1.4427872-0.4889297   c-1.9271393,0.2291145-5.2390327,1.7649899-6.3456459,5.8392925l-1.9991608-4.0885735   c-0.2580223-0.5272713-0.7605934-0.8923721-1.3419228-0.9744072c-0.5834007-0.0813446-1.1654205,0.1298752-1.5588455,0.565094   c-1.7496834,1.9349556-3.9895897,6.7579803-0.5069771,11.6073914c-0.2729607,0.5202332-0.5078392,1.066803-0.6981621,1.6379433   c-1.7412224,5.2245255-4.6229935,8.4473915-7.4101219,11.5640411c-0.782444,0.8750801-1.5729179,1.7596588-2.3332558,2.6874123   V31.0754051c0-0.0170975-0.0003433-0.0340233-0.0006905-0.0511208   c-0.0269432-11.224329-9.1665382-20.3473454-20.3969116-20.3473454c-11.246954,0-20.3972588,9.1501312-20.3972588,20.3970852   c0,10.6505775,8.2071571,19.4153824,18.6284046,20.3155022c0,0,0.0013809,17.6169281,0.0037994,17.6552734   c0.0621738,11.1927185,9.1869183,20.2782593,20.3941479,20.2782593c2.5231476,0,4.9738464-0.4537582,7.3013153-1.3481598   c0.023056,0.0002594,0.0459404,0.0015717,0.0690842,0.0017471c0.3897972,0.1617203,0.7845154,0.3147812,1.1889076,0.4495544   c1.785778,0.5951462,3.6378746,0.8968582,5.5044823,0.8968582h17.1787109c2.8347931,0,5.1407623-2.3061371,5.1407623-5.1407623   c0-2.8347931-2.3059692-5.1409378-5.1407623-5.1409378h-1.3068695c0.2357483-0.5265579,0.4500732-1.0666733,0.6353912-1.6229248   c0.4371109-1.31147,0.6299744-2.6857681,0.8457642-4.051445c0.2868347-1.8153687-0.1331787-3.9671097-0.1331787-3.9671097   c1.4416962,0.381134,2.9445801,0.6467056,4.3876724,0.1259079l0.014595,2.986084   c0.004837,0.9733658,0.7951355,1.7598724,1.7685089,1.7598724l5.9017105-0.000351   c4.7946548,0,6.6435623-2.9911728,6.6435623-2.9911728c0.3842697,0.1882706,0.8081741,0.2905731,1.2487488,0.2905731   c0.759903,0,1.4742203-0.295845,2.0113297-0.832962l0.6379776-0.6376266   c2.7608795-2.7612686,2.7639847-7.2515564,0.0101929-10.0175247l1.4215393-1.0024948   C97.2295837,58.7795029,97.5014191,58.3059464,97.5459824,57.7860985z M63.5940742,35.0661201l-0.2143288,2.3330612   c-0.3207169,0.0001106-0.638237,0.0167122-0.9532509,0.0441055C62.6572304,36.3665085,63.0974579,35.5999565,63.5940742,35.0661201   z M55.4772415,36.8114853l1.3526306,2.766922c-0.2905769,0.2169838-0.5684586,0.4502449-0.8364983,0.6953583   C55.3462448,38.9909706,55.2893372,37.802063,55.4772415,36.8114853z M24.6164227,68.928566   c0-0.0373001-0.0034542-17.5385628-0.0034542-17.5385628c1.354187-0.1156502,2.6827278-0.3652534,3.9781952-0.7458115   c0,0,0.0137291,17.0201683,0.0161476,17.0581627c0.0441265,7.81073,4.5042572,14.591423,11.0027466,17.9782944   C31.1889191,84.7498093,24.6164227,77.5936356,24.6164227,68.928566z M32.1439819,67.5861206   c0-0.0378189-0.0176163-19.4618797-0.0176163-19.4618797s-0.001812-0.0007782-0.0018997-0.0007973   c-0.0001717-0.2382278-0.0462837-0.4800377-0.1486988-0.7119598c-0.3944607-0.8935814-1.4382954-1.2990952-2.3318748-0.9041138   c-2.1453533,0.9467735-4.4330158,1.4267235-6.7990856,1.4267235c-9.2967587,0-16.8602409-7.5634842-16.8602409-16.8600693   c0-9.2967587,7.5634828-16.8600693,16.8602409-16.8600693c9.2964134,0,16.8598938,7.5633097,16.8598938,16.8600693   c0,0.016407,0.0003471,0.0326405,0.0006905,0.0490475v33.165062c0,0.5431595-0.4694138,1.4959106-0.6794243,2.1261826   c-1.4697266,4.409874-1.1343307,9.1281967,0.9447021,13.2857437c0.586422,1.172699,1.295639,2.2576141,2.105114,3.2490768   C36.226059,80.3015518,32.1439819,74.4134903,32.1439819,67.5861206z M72.7164001,82.5783768   c0.8842545,0,1.6037445,0.7194901,1.6037445,1.60392c0,0.8842545-0.7194901,1.6037445-1.6037445,1.6037445h-6.6626511   c1.2096329-0.9180145,2.299408-1.9949646,3.2377167-3.2076645H72.7164001z M76.701416,65.2913818   c-0.1474915,0.4998093-0.5217438,1.1030731-1.4964981,1.1030731c-0.243515,0-2.2605438-0.5915222-4.1131668-1.2068253   c-0.3702774-0.5368347-0.7919388-1.0301056-1.2681732-1.4720192c-2.2289429-2.0674591-5.5569916-2.9997292-9.61903-2.6942101   c-0.9740639,0.0730553-1.7042618,0.92173-1.631382,1.8957939c0.0732269,0.9737129,0.9219055,1.7058144,1.8959656,1.6312065   c3.0596542-0.2279739,5.4602585,0.3794327,6.9486389,1.7600403c2.1611633,2.0046692,2.2594376,5.5127716,1.7389297,8.2112808   c-0.1163025,0.6029816-0.272995,1.1980438-0.4671097,1.7806244c-1.8907852,5.6737366-7.1762772,9.4856949-13.1519012,9.4856949   c-1.4859619,0-2.9615631-0.2407455-4.3860397-0.7155151c-3.5135307-1.1709518-6.3611031-3.6401215-8.0173531-6.9524536   c-1.6565971-3.3125-1.9239464-7.071785-0.7529984-10.5854874c1.1650734-3.4953918,3.3273506-5.9136238,5.8312416-8.7135315   c2.8855705-3.2271805,6.1562767-6.884922,8.1285744-12.8035507c1.0127487-3.0382423,3.8427086-5.0794525,7.0422592-5.0794525   c0.7951393,0,1.5854378,0.1290092,2.3487968,0.3834038c4.7369766,1.5785332,11.2573166,6.290123,11.1160431,10.3772087   c-0.0856628,2.479538-5.9973831,2.5512123-6.6709366,2.5512123c-0.4252014,0-0.6932449-0.014164-0.7156906-0.0155449   c-0.6448898-0.0373039-1.2683563,0.282547-1.6103134,0.8367615l-1.3892441,2.2515678   c-0.2728806,0.4419518-0.337471,0.9813118-0.1768494,1.4750786c0.1602707,0.4937668,0.5295105,0.8922005,1.0099792,1.0894279   c0.2576828,0.1060448,6.3369293,2.6009521,8.220459,3.2299461C75.9473801,63.2591515,77.0913849,63.9682808,76.701416,65.2913818z    M88.5649261,69.1869354c-0.9978943,0.9977188-2.3242722,1.5472717-3.7349319,1.5474472l-4.1418381,0.0001678l-0.0203781-4.1651459   c-0.0069046-1.4001236,0.5571518-2.7712402,1.5470963-3.761364l0.2832413-0.283062l6.364212,6.3643875L88.5649261,69.1869354z    M92.8704834,67.5989075l-0.1481781,0.1481781l-9.0725861-9.0727577l0.1481781-0.1481819   c0.6711349-0.6713104,1.5636826-1.0410728,2.5132217-1.0410728c0.9495316,0,1.8420792,0.3697624,2.5135574,1.0412445   l4.0454636,4.0458069C94.256279,63.9580917,94.256279,66.2131119,92.8704834,67.5989075z"></path></g></svg>