<?xml version="1.0" encoding="UTF-8" standalone="no"?>
<!DOCTYPE svg PUBLIC "-//W3C//DTD SVG 1.1//EN"
 "http://www.w3.org/Graphics/SVG/1.1/DTD/svg11.dtd">
<!-- Generated by graphviz version 2.40.1 (20161225.0304)
 -->
<!-- Title: finite_state_machine Pages: 1 -->
<svg width="253pt" height="360pt"
 viewBox="0.00 0.00 253.08 360.00" xmlns="http://www.w3.org/2000/svg" xmlns:xlink="http://www.w3.org/1999/xlink">
<g id="graph0" class="graph" transform="scale(.1909 .1909) rotate(0) translate(4 1882)">
<title>finite_state_machine</title>
<polygon fill="#ffffff" stroke="transparent" points="-4,4 -4,-1882 1321.8586,-1882 1321.8586,4 -4,4"/>
<!-- i -->
<g id="node1" class="node">
<title>i</title>
<polygon fill="none" stroke="#000000" points="144,-618 0,-618 0,-582 144,-582 144,-618"/>
<text text-anchor="middle" x="72" y="-595.8" font-family="Times,serif" font-size="14.00" fill="#000000">i</text>
</g>
<!-- EFSVIUDM -->
<g id="node2" class="node">
<title>EFSVIUDM</title>
<polygon fill="none" stroke="#000000" points="325,-618 181,-618 181,-582 325,-582 325,-618"/>
<text text-anchor="middle" x="253" y="-595.8" font-family="Times,serif" font-size="14.00" fill="#000000">EFSVIUDM</text>
</g>
<!-- i&#45;&gt;EFSVIUDM -->
<g id="edge1" class="edge">
<title>i&#45;&gt;EFSVIUDM</title>
<path fill="none" stroke="#000000" d="M144.0561,-600C152.8663,-600 161.92,-600 170.8638,-600"/>
<polygon fill="#000000" stroke="#000000" points="170.8962,-603.5001 180.8962,-600 170.8961,-596.5001 170.8962,-603.5001"/>
</g>
<!-- EWSIUD -->
<g id="node3" class="node">
<title>EWSIUD</title>
<polygon fill="none" stroke="#000000" points="578.8514,-829 434.8514,-829 434.8514,-793 578.8514,-793 578.8514,-829"/>
<text text-anchor="middle" x="506.8514" y="-806.8" font-family="Times,serif" font-size="14.00" fill="#000000">EWSIUD</text>
</g>
<!-- EFSVIUDM&#45;&gt;EWSIUD -->
<g id="edge2" class="edge">
<title>EFSVIUDM&#45;&gt;EWSIUD</title>
<path fill="none" stroke="#000000" d="M275.0836,-618.3558C320.7692,-656.3294 425.6865,-743.5362 477.2067,-786.3595"/>
<polygon fill="#000000" stroke="#000000" points="475.0721,-789.1364 484.9996,-792.8369 479.5466,-783.7531 475.0721,-789.1364"/>
<text text-anchor="start" x="343" y="-735.2" font-family="Times,serif" font-size="14.00" fill="#0000ff">express&#45;from</text>
</g>
<!-- SUD -->
<g id="node5" class="node">
<title>SUD</title>
<polygon fill="none" stroke="#000000" points="1099.7534,-1167 955.7534,-1167 955.7534,-1131 1099.7534,-1131 1099.7534,-1167"/>
<text text-anchor="middle" x="1027.7534" y="-1144.8" font-family="Times,serif" font-size="14.00" fill="#000000">SUD</text>
</g>
<!-- EFSVIUDM&#45;&gt;SUD -->
<g id="edge39" class="edge">
<title>EFSVIUDM&#45;&gt;SUD</title>
<path fill="none" stroke="#000000" d="M259.1974,-618.218C287.1715,-698.3691 408.5502,-1024.6994 596.8514,-1229 702.977,-1344.1429 803.5031,-1398.6063 937.7534,-1318 988.8986,-1287.2915 1012.565,-1216.5848 1022.1446,-1177.0509"/>
<polygon fill="#000000" stroke="#000000" points="1025.5684,-1177.7785 1024.3848,-1167.25 1018.7444,-1176.2187 1025.5684,-1177.7785"/>
<text text-anchor="start" x="620.1712" y="-1307.2" font-family="Times,serif" font-size="14.00" fill="#0000ff">where</text>
</g>
<!-- M -->
<g id="node6" class="node">
<title>M</title>
<polygon fill="none" stroke="#000000" points="578.8514,-36 434.8514,-36 434.8514,0 578.8514,0 578.8514,-36"/>
<text text-anchor="middle" x="506.8514" y="-13.8" font-family="Times,serif" font-size="14.00" fill="#000000">M</text>
</g>
<!-- EFSVIUDM&#45;&gt;M -->
<g id="edge5" class="edge">
<title>EFSVIUDM&#45;&gt;M</title>
<path fill="none" stroke="#000000" d="M254.1449,-581.738C259.4957,-501.4214 284.2961,-180.09 343,-101.2 357.0768,-82.2828 409.5279,-57.4717 451.3435,-39.8806"/>
<polygon fill="#000000" stroke="#000000" points="452.7385,-43.0911 460.6274,-36.0189 450.0501,-36.628 452.7385,-43.0911"/>
<text text-anchor="start" x="377.9804" y="-106.2" font-family="Times,serif" font-size="14.00" fill="#0000ff">l</text>
</g>
<!-- EFSVIUDM&#45;&gt;M -->
<g id="edge7" class="edge">
<title>EFSVIUDM&#45;&gt;M</title>
<path fill="none" stroke="#000000" d="M254.6013,-581.698C262.8843,-488.9809 302.0604,-74.0086 343,-35.2 364.447,-14.8693 395.2711,-8.1475 424.41,-7.3612"/>
<polygon fill="#000000" stroke="#000000" points="424.6433,-10.8604 434.6284,-7.3181 424.6137,-3.8605 424.6433,-10.8604"/>
<text text-anchor="start" x="369.4348" y="-40.2" font-family="Times,serif" font-size="14.00" fill="#0000ff">raw</text>
</g>
<!-- SIUD -->
<g id="node7" class="node">
<title>SIUD</title>
<polygon fill="none" stroke="#000000" points="839.6874,-698 695.6874,-698 695.6874,-662 839.6874,-662 839.6874,-698"/>
<text text-anchor="middle" x="767.6874" y="-675.8" font-family="Times,serif" font-size="14.00" fill="#000000">SIUD</text>
</g>
<!-- EFSVIUDM&#45;&gt;SIUD -->
<g id="edge9" class="edge">
<title>EFSVIUDM&#45;&gt;SIUD</title>
<path fill="none" stroke="#000000" d="M325.107,-611.2079C419.9261,-625.946 586.1174,-651.7778 685.6415,-667.2473"/>
<polygon fill="#000000" stroke="#000000" points="685.2351,-670.726 695.654,-668.8036 686.3103,-663.8091 685.2351,-670.726"/>
<text text-anchor="start" x="494.4075" y="-655.2" font-family="Times,serif" font-size="14.00" fill="#0000ff">with</text>
</g>
<!-- EFSVIUDM&#45;&gt;SIUD -->
<g id="edge19" class="edge">
<title>EFSVIUDM&#45;&gt;SIUD</title>
<path fill="none" stroke="#000000" d="M325.2635,-595.2772C391.7977,-592.519 492.9062,-592.3618 578.8514,-609.2 629.373,-619.0981 684.1558,-640.9829 721.6375,-657.8194"/>
<polygon fill="#000000" stroke="#000000" points="720.2293,-661.0239 730.7808,-661.9807 723.129,-654.6527 720.2293,-661.0239"/>
<text text-anchor="start" x="493.2455" y="-614.2" font-family="Times,serif" font-size="14.00" fill="#0000ff">from</text>
</g>
<!-- EFSVIUDM&#45;&gt;SIUD -->
<g id="edge29" class="edge">
<title>EFSVIUDM&#45;&gt;SIUD</title>
<path fill="none" stroke="#000000" d="M325.0051,-583.9602C391.3622,-571.618 492.3555,-559.0175 578.8514,-574.2 624.8679,-582.2772 636.783,-587.426 677.6874,-610 700.3257,-622.4934 723.2937,-640.4623 740.3609,-655.0662"/>
<polygon fill="#000000" stroke="#000000" points="738.3983,-657.9982 748.2381,-661.9263 742.9955,-652.7194 738.3983,-657.9982"/>
<text text-anchor="start" x="490.1382" y="-579.2" font-family="Times,serif" font-size="14.00" fill="#0000ff">return</text>
</g>
<!-- SV -->
<g id="node8" class="node">
<title>SV</title>
<polygon fill="none" stroke="#000000" points="1099.7534,-1776 955.7534,-1776 955.7534,-1740 1099.7534,-1740 1099.7534,-1776"/>
<text text-anchor="middle" x="1027.7534" y="-1753.8" font-family="Times,serif" font-size="14.00" fill="#000000">SV</text>
</g>
<!-- EFSVIUDM&#45;&gt;SV -->
<g id="edge48" class="edge">
<title>EFSVIUDM&#45;&gt;SV</title>
<path fill="none" stroke="#000000" d="M253.7046,-618.1665C259.4169,-763.2679 299.0521,-1729.6523 343,-1771 519.8192,-1937.3575 850.1788,-1830.0782 976.6762,-1779.8311"/>
<polygon fill="#000000" stroke="#000000" points="978.1686,-1783.0035 986.1414,-1776.026 975.5576,-1776.5086 978.1686,-1783.0035"/>
<text text-anchor="start" x="622.5015" y="-1864.2" font-family="Times,serif" font-size="14.00" fill="#0000ff">order</text>
</g>
<!-- EFSVIUDM&#45;&gt;SV -->
<g id="edge55" class="edge">
<title>EFSVIUDM&#45;&gt;SV</title>
<path fill="none" stroke="#000000" d="M253.7754,-618.4365C259.8789,-761.5599 301.0539,-1690.699 343,-1731 426.9278,-1811.6362 782.5405,-1784.7875 945.5327,-1767.6487"/>
<polygon fill="#000000" stroke="#000000" points="945.9398,-1771.1252 955.513,-1766.586 945.1986,-1764.1646 945.9398,-1771.1252"/>
<text text-anchor="start" x="624.0429" y="-1790.2" font-family="Times,serif" font-size="14.00" fill="#0000ff">limit</text>
</g>
<!-- EFSVIUDM&#45;&gt;SV -->
<g id="edge62" class="edge">
<title>EFSVIUDM&#45;&gt;SV</title>
<path fill="none" stroke="#000000" d="M253.1406,-618.2448C254.3629,-754.2132 265.1135,-1606.3747 343,-1686 424.8213,-1769.648 781.9698,-1767.465 945.48,-1761.8087"/>
<polygon fill="#000000" stroke="#000000" points="945.6233,-1765.3059 955.4914,-1761.4496 945.3724,-1758.3104 945.6233,-1765.3059"/>
<text text-anchor="start" x="621.3339" y="-1765.2" font-family="Times,serif" font-size="14.00" fill="#0000ff">offset</text>
</g>
<!-- S -->
<g id="node9" class="node">
<title>S</title>
<polygon fill="none" stroke="#000000" points="1317.8586,-1341 1173.8586,-1341 1173.8586,-1305 1317.8586,-1305 1317.8586,-1341"/>
<text text-anchor="middle" x="1245.8586" y="-1318.8" font-family="Times,serif" font-size="14.00" fill="#000000">S</text>
</g>
<!-- EFSVIUDM&#45;&gt;S -->
<g id="edge69" class="edge">
<title>EFSVIUDM&#45;&gt;S</title>
<path fill="none" stroke="#000000" d="M253.3225,-618.0968C255.8232,-749.3895 273.8996,-1552.9335 343,-1633 391.9088,-1689.6705 431.9941,-1672 506.8514,-1672 506.8514,-1672 506.8514,-1672 897.7204,-1672 955.7691,-1672 1114.6969,-1672.9312 1155.8586,-1632 1196.1936,-1591.8909 1229.2995,-1420.1191 1241.1609,-1351.49"/>
<polygon fill="#000000" stroke="#000000" points="1244.6512,-1351.8427 1242.88,-1341.397 1237.7506,-1350.6673 1244.6512,-1351.8427"/>
<text text-anchor="start" x="751.3571" y="-1676.2" font-family="Times,serif" font-size="14.00" fill="#0000ff">group</text>
</g>
<!-- EFSVIUDM&#45;&gt;S -->
<g id="edge76" class="edge">
<title>EFSVIUDM&#45;&gt;S</title>
<path fill="none" stroke="#000000" d="M256.4437,-618.3614C279.9412,-737.5344 428.7802,-1402.6345 857.6874,-1601 978.6577,-1656.9476 1073.1701,-1673.5303 1155.8586,-1569 1209.0864,-1501.7123 1232.7401,-1400.0002 1241.5014,-1351.1442"/>
<polygon fill="#000000" stroke="#000000" points="1244.9526,-1351.726 1243.1952,-1341.278 1238.0536,-1350.5415 1244.9526,-1351.726"/>
<text text-anchor="start" x="748.6348" y="-1592.2" font-family="Times,serif" font-size="14.00" fill="#0000ff">having</text>
</g>
<!-- I -->
<g id="node10" class="node">
<title>I</title>
<polygon fill="none" stroke="#000000" points="1099.7534,-272 955.7534,-272 955.7534,-236 1099.7534,-236 1099.7534,-272"/>
<text text-anchor="middle" x="1027.7534" y="-249.8" font-family="Times,serif" font-size="14.00" fill="#000000">I</text>
</g>
<!-- EFSVIUDM&#45;&gt;I -->
<g id="edge83" class="edge">
<title>EFSVIUDM&#45;&gt;I</title>
<path fill="none" stroke="#000000" d="M254.9189,-581.9621C262.279,-516.3951 290.9354,-292.1844 343,-247 516.782,-96.1829 627.9252,-203.4627 857.6874,-191 893.2201,-189.0726 903.8147,-180.3018 937.7534,-191 961.6709,-198.5393 984.7615,-214.9533 1001.5652,-229.1367"/>
<polygon fill="#000000" stroke="#000000" points="999.449,-231.9352 1009.2854,-235.8717 1004.0507,-226.6604 999.449,-231.9352"/>
<text text-anchor="start" x="621.7189" y="-184.2" font-family="Times,serif" font-size="14.00" fill="#0000ff">insert</text>
</g>
<!-- U -->
<g id="node11" class="node">
<title>U</title>
<polygon fill="none" stroke="#000000" points="1317.8586,-391 1173.8586,-391 1173.8586,-355 1317.8586,-355 1317.8586,-391"/>
<text text-anchor="middle" x="1245.8586" y="-368.8" font-family="Times,serif" font-size="14.00" fill="#000000">U</text>
</g>
<!-- EFSVIUDM&#45;&gt;U -->
<g id="edge90" class="edge">
<title>EFSVIUDM&#45;&gt;U</title>
<path fill="none" stroke="#000000" d="M254.739,-581.6807C261.8373,-510.4703 290.7496,-253.0549 343,-193 394.0048,-134.3768 429.1457,-132 506.8514,-132 506.8514,-132 506.8514,-132 1027.7534,-132 1092.4227,-132 1110.4054,-154.9987 1155.8586,-201 1197.4305,-243.0732 1224.3011,-308.2957 1237.0896,-345.1543"/>
<polygon fill="#000000" stroke="#000000" points="1233.8145,-346.3959 1240.3237,-354.7554 1240.4483,-344.1613 1233.8145,-346.3959"/>
<text text-anchor="start" x="759.9125" y="-136.2" font-family="Times,serif" font-size="14.00" fill="#0000ff">set</text>
</g>
<!-- D -->
<g id="node12" class="node">
<title>D</title>
<polygon fill="none" stroke="#000000" points="1317.8586,-615 1173.8586,-615 1173.8586,-579 1317.8586,-579 1317.8586,-615"/>
<text text-anchor="middle" x="1245.8586" y="-592.8" font-family="Times,serif" font-size="14.00" fill="#000000">D</text>
</g>
<!-- EFSVIUDM&#45;&gt;D -->
<g id="edge96" class="edge">
<title>EFSVIUDM&#45;&gt;D</title>
<path fill="none" stroke="#000000" d="M254.9857,-581.8206C260.5779,-539.7626 280.3777,-435.2136 343,-381 407.8738,-324.8373 1032.9787,-173.1113 1099.7534,-227 1130.0956,-251.4868 1148.3723,-540.4923 1173.8586,-570 1174.4885,-570.7293 1175.1402,-571.439 1175.8118,-572.1295"/>
<polygon fill="#000000" stroke="#000000" points="1173.8057,-575.0175 1183.6947,-578.82 1178.3354,-569.6806 1173.8057,-575.0175"/>
<text text-anchor="start" x="750.9749" y="-273.2" font-family="Times,serif" font-size="14.00" fill="#0000ff">delete</text>
</g>
<!-- V -->
<g id="node13" class="node">
<title>V</title>
<polygon fill="none" stroke="#000000" points="1317.8586,-1042 1173.8586,-1042 1173.8586,-1006 1317.8586,-1006 1317.8586,-1042"/>
<text text-anchor="middle" x="1245.8586" y="-1019.8" font-family="Times,serif" font-size="14.00" fill="#000000">V</text>
</g>
<!-- EFSVIUDM&#45;&gt;V -->
<g id="edge87" class="edge">
<title>EFSVIUDM&#45;&gt;V</title>
<path fill="none" stroke="#000000" d="M294.3853,-581.9785C309.4164,-576.1994 326.7123,-570.4166 343,-567 507.5889,-532.4746 956.6254,-483.7056 1099.7534,-572 1133.1,-592.5712 1140.4889,-603.9592 1155.8586,-640 1182.8902,-703.3872 1159.5025,-726.6016 1173.8586,-794 1189.7562,-868.6355 1219.5452,-953.6616 1235.3639,-996.3931"/>
<polygon fill="#000000" stroke="#000000" points="1232.1092,-997.6824 1238.8847,-1005.8276 1238.6675,-995.235 1232.1092,-997.6824"/>
<text text-anchor="start" x="749.8052" y="-529.2" font-family="Times,serif" font-size="14.00" fill="#0000ff">values</text>
</g>
<!-- ERSUD -->
<g id="node4" class="node">
<title>ERSUD</title>
<polygon fill="none" stroke="#000000" points="839.6874,-1285 695.6874,-1285 695.6874,-1249 839.6874,-1249 839.6874,-1285"/>
<text text-anchor="middle" x="767.6874" y="-1262.8" font-family="Times,serif" font-size="14.00" fill="#000000">ERSUD</text>
</g>
<!-- EWSIUD&#45;&gt;ERSUD -->
<g id="edge3" class="edge">
<title>EWSIUD&#45;&gt;ERSUD</title>
<path fill="none" stroke="#000000" d="M508.1899,-829.0328C512.7231,-880.0426 531.104,-1028.1306 596.8514,-1128 629.9412,-1178.263 686.9128,-1219.26 725.896,-1243.3872"/>
<polygon fill="#000000" stroke="#000000" points="724.5399,-1246.6586 734.9033,-1248.8608 728.1751,-1240.6765 724.5399,-1246.6586"/>
<text text-anchor="start" x="596.8514" y="-1212.2" font-family="Times,serif" font-size="14.00" fill="#0000ff">express&#45;where</text>
</g>
<!-- EWSIUD&#45;&gt;SUD -->
<g id="edge40" class="edge">
<title>EWSIUD&#45;&gt;SUD</title>
<path fill="none" stroke="#000000" d="M510.8057,-829.2655C522.6313,-882.1975 559.2412,-1033.9529 596.8514,-1066 714.0673,-1165.878 786.967,-1096.7163 937.7534,-1128 940.3873,-1128.5465 943.0622,-1129.1114 945.7615,-1129.6901"/>
<polygon fill="#000000" stroke="#000000" points="945.0959,-1133.1271 955.6119,-1131.8369 946.5865,-1126.2877 945.0959,-1133.1271"/>
<text text-anchor="start" x="750.5892" y="-1126.2" font-family="Times,serif" font-size="14.00" fill="#0000ff">where</text>
</g>
<!-- EWSIUD&#45;&gt;SIUD -->
<g id="edge10" class="edge">
<title>EWSIUD&#45;&gt;SIUD</title>
<path fill="none" stroke="#000000" d="M518.8278,-792.8533C534.2054,-771.0804 562.9847,-735.1476 596.8514,-716.2 623.5959,-701.2371 655.8548,-692.4466 685.1038,-687.287"/>
<polygon fill="#000000" stroke="#000000" points="686.0102,-690.685 695.31,-685.6092 684.8746,-683.7778 686.0102,-690.685"/>
<text text-anchor="start" x="624.8255" y="-721.2" font-family="Times,serif" font-size="14.00" fill="#0000ff">with</text>
</g>
<!-- EWSIUD&#45;&gt;SIUD -->
<g id="edge20" class="edge">
<title>EWSIUD&#45;&gt;SIUD</title>
<path fill="none" stroke="#000000" d="M579.0928,-799.2073C617.6764,-792.0728 660.6531,-782.5357 677.6874,-773 707.111,-756.5289 732.9671,-727.4076 749.3262,-706.1291"/>
<polygon fill="#000000" stroke="#000000" points="752.1328,-708.2204 755.325,-698.1179 746.5295,-704.0247 752.1328,-708.2204"/>
<text text-anchor="start" x="623.6635" y="-800.2" font-family="Times,serif" font-size="14.00" fill="#0000ff">from</text>
</g>
<!-- EWSIUD&#45;&gt;SIUD -->
<g id="edge30" class="edge">
<title>EWSIUD&#45;&gt;SIUD</title>
<path fill="none" stroke="#000000" d="M529.6447,-792.905C547.1219,-779.8518 572.3309,-762.7397 596.8514,-752.2 630.7768,-737.6178 643.4321,-746.7895 677.6874,-733 696.8479,-725.287 716.7755,-713.9449 732.9943,-703.7303"/>
<polygon fill="#000000" stroke="#000000" points="735.0754,-706.5533 741.5948,-698.2017 731.2902,-700.6649 735.0754,-706.5533"/>
<text text-anchor="start" x="620.5562" y="-757.2" font-family="Times,serif" font-size="14.00" fill="#0000ff">return</text>
</g>
<!-- EWSIUD&#45;&gt;S -->
<g id="edge49" class="edge">
<title>EWSIUD&#45;&gt;S</title>
<path fill="none" stroke="#000000" d="M508.3265,-829.2803C512.8484,-871.9637 530.5587,-978.1823 596.8514,-1026 687.7472,-1091.5642 1006.7062,-1001.5266 1099.7534,-1064 1114.6049,-1073.9716 1106.6735,-1085.9559 1117.7534,-1100 1131.4513,-1117.3625 1142.364,-1114.4791 1155.8586,-1132 1195.6923,-1183.7184 1223.6589,-1255.9111 1236.9925,-1295.0644"/>
<polygon fill="#000000" stroke="#000000" points="1233.7319,-1296.351 1240.2145,-1304.7311 1240.3727,-1294.1375 1233.7319,-1296.351"/>
<text text-anchor="start" x="882.9525" y="-1049.2" font-family="Times,serif" font-size="14.00" fill="#0000ff">order</text>
</g>
<!-- EWSIUD&#45;&gt;S -->
<g id="edge56" class="edge">
<title>EWSIUD&#45;&gt;S</title>
<path fill="none" stroke="#000000" d="M512.0656,-829.12C522.4014,-861.4866 548.7528,-928.8503 596.8514,-961 690.7906,-1023.7901 1009.3405,-968.2306 1099.7534,-1036 1115.029,-1047.4499 1105.6791,-1060.213 1117.7534,-1075 1131.0457,-1091.2787 1142.9284,-1086.4323 1155.8586,-1103 1202.6338,-1162.9338 1228.6961,-1250.5421 1239.6329,-1294.9535"/>
<polygon fill="#000000" stroke="#000000" points="1236.2487,-1295.8509 1241.9745,-1304.7653 1243.0575,-1294.2259 1236.2487,-1295.8509"/>
<text text-anchor="start" x="884.4939" y="-1003.2" font-family="Times,serif" font-size="14.00" fill="#0000ff">limit</text>
</g>
<!-- EWSIUD&#45;&gt;S -->
<g id="edge63" class="edge">
<title>EWSIUD&#45;&gt;S</title>
<path fill="none" stroke="#000000" d="M560.5993,-829.0155C572.5276,-832.986 585.1129,-837.1535 596.8514,-841 755.2695,-892.9101 791.8014,-919.8225 955.7534,-950 999.7745,-958.1026 1123.5053,-942.0682 1155.8586,-973 1174.0793,-990.4202 1168.1962,-1060.4359 1173.8586,-1085 1191.6709,-1162.2709 1220.9916,-1251.1903 1236.1341,-1295.2571"/>
<polygon fill="#000000" stroke="#000000" points="1232.8273,-1296.4039 1239.4025,-1304.7116 1239.4431,-1294.1169 1232.8273,-1296.4039"/>
<text text-anchor="start" x="881.7849" y="-950.2" font-family="Times,serif" font-size="14.00" fill="#0000ff">offset</text>
</g>
<!-- EWSIUD&#45;&gt;S -->
<g id="edge70" class="edge">
<title>EWSIUD&#45;&gt;S</title>
<path fill="none" stroke="#000000" d="M579.1794,-812.7551C700.9284,-815.7721 934.0129,-821.8443 937.7534,-824.2 952.4879,-833.4797 942.1668,-848.1087 955.7534,-859 1007.3989,-900.4002 1042.3523,-864.0402 1099.7534,-897 1130.3062,-914.5434 1140.1883,-921.4455 1155.8586,-953 1182.194,-1006.0304 1161.2468,-1027.1492 1173.8586,-1085 1190.7492,-1162.4776 1220.4709,-1251.3071 1235.9135,-1295.3065"/>
<polygon fill="#000000" stroke="#000000" points="1232.6173,-1296.4837 1239.2495,-1304.7459 1239.2173,-1294.1511 1232.6173,-1296.4837"/>
<text text-anchor="start" x="881.3901" y="-829.2" font-family="Times,serif" font-size="14.00" fill="#0000ff">group</text>
</g>
<!-- EWSIUD&#45;&gt;S -->
<g id="edge77" class="edge">
<title>EWSIUD&#45;&gt;S</title>
<path fill="none" stroke="#000000" d="M507.6456,-829.1255C510.9057,-889.2017 526.6512,-1086.0814 596.8514,-1229 676.086,-1390.3116 705.8437,-1441.8593 857.6874,-1538 969.6548,-1608.8928 1062.6699,-1634.225 1155.8586,-1540 1208.9608,-1486.3073 1232.3292,-1396.767 1241.1962,-1351.3213"/>
<polygon fill="#000000" stroke="#000000" points="1244.6757,-1351.7531 1243.057,-1341.2827 1237.793,-1350.4773 1244.6757,-1351.7531"/>
<text text-anchor="start" x="878.6678" y="-1584.2" font-family="Times,serif" font-size="14.00" fill="#0000ff">having</text>
</g>
<!-- EWSIUD&#45;&gt;I -->
<g id="edge84" class="edge">
<title>EWSIUD&#45;&gt;I</title>
<path fill="none" stroke="#000000" d="M519.2204,-792.6159C535.8582,-766.8718 564.9591,-718.054 578.8514,-672 600.2832,-600.9519 556.505,-568.2842 596.8514,-506 599.9059,-501.2846 880.98,-338.7251 987.4728,-277.2409"/>
<polygon fill="#000000" stroke="#000000" points="989.4174,-280.1597 996.3281,-272.1289 985.9177,-274.0973 989.4174,-280.1597"/>
<text text-anchor="start" x="752.1369" y="-450.2" font-family="Times,serif" font-size="14.00" fill="#0000ff">insert</text>
</g>
<!-- EWSIUD&#45;&gt;U -->
<g id="edge91" class="edge">
<title>EWSIUD&#45;&gt;U</title>
<path fill="none" stroke="#000000" d="M519.3766,-792.662C536.1957,-766.9715 565.5059,-718.2154 578.8514,-672 605.2085,-580.7252 573.0461,-550.9733 596.8514,-459 623.7106,-355.2278 611.0034,-304.7168 695.6874,-239 767.0641,-183.61 1018.1317,-155.2627 1099.7534,-194 1166.3231,-225.5937 1212.5845,-304.0094 1233.4071,-345.7867"/>
<polygon fill="#000000" stroke="#000000" points="1230.2891,-347.3782 1237.8076,-354.843 1236.5852,-344.3189 1230.2891,-347.3782"/>
<text text-anchor="start" x="889.9455" y="-190.2" font-family="Times,serif" font-size="14.00" fill="#0000ff">set</text>
</g>
<!-- EWSIUD&#45;&gt;D -->
<g id="edge97" class="edge">
<title>EWSIUD&#45;&gt;D</title>
<path fill="none" stroke="#000000" d="M515.7865,-792.8657C545.2509,-733.8131 640.5945,-548.7752 695.6874,-513 770.9953,-464.098 1017.0759,-477.9698 1099.7534,-513 1138.0125,-529.2103 1137.5384,-549.8165 1173.8586,-570 1176.8671,-571.6718 1179.9998,-573.2808 1183.2013,-574.8225"/>
<polygon fill="#000000" stroke="#000000" points="1181.8077,-578.0336 1192.3596,-578.9861 1184.7047,-571.6612 1181.8077,-578.0336"/>
<text text-anchor="start" x="881.0079" y="-488.2" font-family="Times,serif" font-size="14.00" fill="#0000ff">delete</text>
</g>
<!-- ERSUD&#45;&gt;SUD -->
<g id="edge4" class="edge">
<title>ERSUD&#45;&gt;SUD</title>
<path fill="none" stroke="#000000" d="M812.286,-1285.0137C848.2536,-1296.5339 899.0465,-1305.8 937.7534,-1285 980.2451,-1262.1661 1006.0414,-1209.4873 1018.5441,-1176.8026"/>
<polygon fill="#000000" stroke="#000000" points="1021.8512,-1177.9499 1022.0012,-1167.3562 1015.2776,-1175.5441 1021.8512,-1177.9499"/>
<text text-anchor="start" x="857.6874" y="-1301.2" font-family="Times,serif" font-size="14.00" fill="#0000ff">express&#45;return</text>
</g>
<!-- ERSUD&#45;&gt;SUD -->
<g id="edge12" class="edge">
<title>ERSUD&#45;&gt;SUD</title>
<path fill="none" stroke="#000000" d="M840.0001,-1262.5119C878.2765,-1259.1825 920.793,-1253.6825 937.7534,-1245 968.8114,-1229.1005 994.8443,-1198.0038 1010.7939,-1175.5018"/>
<polygon fill="#000000" stroke="#000000" points="1013.8221,-1177.2748 1016.6006,-1167.0508 1008.0528,-1173.3107 1013.8221,-1177.2748"/>
<text text-anchor="start" x="885.2765" y="-1264.2" font-family="Times,serif" font-size="14.00" fill="#0000ff">with</text>
</g>
<!-- ERSUD&#45;&gt;SUD -->
<g id="edge22" class="edge">
<title>ERSUD&#45;&gt;SUD</title>
<path fill="none" stroke="#000000" d="M801.5926,-1248.8127C818.1613,-1240.4633 838.6006,-1230.9438 857.6874,-1224.2 892.1908,-1212.0092 903.9913,-1219.1146 937.7534,-1205 957.6663,-1196.6752 978.2233,-1184.2246 994.6548,-1173.1758"/>
<polygon fill="#000000" stroke="#000000" points="997.0682,-1175.7642 1003.3287,-1167.2169 993.1045,-1169.9945 997.0682,-1175.7642"/>
<text text-anchor="start" x="884.1145" y="-1228.2" font-family="Times,serif" font-size="14.00" fill="#0000ff">from</text>
</g>
<!-- ERSUD&#45;&gt;SUD -->
<g id="edge32" class="edge">
<title>ERSUD&#45;&gt;SUD</title>
<path fill="none" stroke="#000000" d="M782.1995,-1248.7622C798.483,-1229.6029 826.7053,-1200.0912 857.6874,-1184.2 866.0036,-1179.9345 906.1597,-1171.5434 945.3618,-1164.0238"/>
<polygon fill="#000000" stroke="#000000" points="946.1191,-1167.4425 955.2879,-1162.1338 944.8098,-1160.5661 946.1191,-1167.4425"/>
<text text-anchor="start" x="881.0072" y="-1188.2" font-family="Times,serif" font-size="14.00" fill="#0000ff">return</text>
</g>
<!-- ERSUD&#45;&gt;SUD -->
<g id="edge42" class="edge">
<title>ERSUD&#45;&gt;SUD</title>
<path fill="none" stroke="#000000" d="M774.7904,-1248.6865C786.8971,-1220.3786 814.4943,-1166.9894 857.6874,-1145.2 884.3403,-1131.7545 916.46,-1129.5195 945.5738,-1131.7381"/>
<polygon fill="#000000" stroke="#000000" points="945.4477,-1135.2417 955.7325,-1132.6976 946.1059,-1128.2727 945.4477,-1135.2417"/>
<text text-anchor="start" x="880.6222" y="-1149.2" font-family="Times,serif" font-size="14.00" fill="#0000ff">where</text>
</g>
<!-- ERSUD&#45;&gt;S -->
<g id="edge51" class="edge">
<title>ERSUD&#45;&gt;S</title>
<path fill="none" stroke="#000000" d="M784.87,-1285.059C801.8608,-1304.0791 827.091,-1335.6994 839.6874,-1368 851.4043,-1398.0452 834.2866,-1489.8098 857.6874,-1512 894.5346,-1546.941 1094.6734,-1558.2321 1155.8586,-1519 1214.2208,-1481.578 1235.2405,-1395.7577 1242.4047,-1351.1249"/>
<polygon fill="#000000" stroke="#000000" points="1245.8671,-1351.6361 1243.8727,-1341.2307 1238.9429,-1350.6087 1245.8671,-1351.6361"/>
<text text-anchor="start" x="1012.9855" y="-1547.2" font-family="Times,serif" font-size="14.00" fill="#0000ff">order</text>
</g>
<!-- ERSUD&#45;&gt;S -->
<g id="edge58" class="edge">
<title>ERSUD&#45;&gt;S</title>
<path fill="none" stroke="#000000" d="M784.4001,-1285.2519C801.0167,-1304.4256 825.9537,-1336.1663 839.6874,-1368 856.019,-1405.8554 826.7842,-1431.71 857.6874,-1459 907.354,-1502.8595 1099.5495,-1493.9244 1155.8586,-1459 1196.4584,-1433.8189 1222.638,-1382.747 1235.7682,-1350.8554"/>
<polygon fill="#000000" stroke="#000000" points="1239.151,-1351.8185 1239.5744,-1341.2321 1232.6417,-1349.2439 1239.151,-1351.8185"/>
<text text-anchor="start" x="1014.5269" y="-1492.2" font-family="Times,serif" font-size="14.00" fill="#0000ff">limit</text>
</g>
<!-- ERSUD&#45;&gt;S -->
<g id="edge65" class="edge">
<title>ERSUD&#45;&gt;S</title>
<path fill="none" stroke="#000000" d="M782.2543,-1285.3188C797.5868,-1305.0604 821.9174,-1337.73 839.6874,-1368 849.1483,-1384.116 842.262,-1395.4505 857.6874,-1406 967.0732,-1480.8093 1035.6541,-1461.7904 1155.8586,-1406 1183.8624,-1393.0026 1209.0616,-1368.0346 1225.6236,-1348.8639"/>
<polygon fill="#000000" stroke="#000000" points="1228.4295,-1350.9651 1232.1758,-1341.0547 1223.067,-1346.4658 1228.4295,-1350.9651"/>
<text text-anchor="start" x="1011.8179" y="-1459.2" font-family="Times,serif" font-size="14.00" fill="#0000ff">offset</text>
</g>
<!-- ERSUD&#45;&gt;S -->
<g id="edge72" class="edge">
<title>ERSUD&#45;&gt;S</title>
<path fill="none" stroke="#000000" d="M780.5123,-1285.2874C796.1049,-1305.8538 824.4907,-1338.2958 857.6874,-1353 966.292,-1401.1053 1108.7082,-1369.029 1187.3378,-1344.1855"/>
<polygon fill="#000000" stroke="#000000" points="1188.6277,-1347.4471 1197.0691,-1341.0444 1186.4774,-1340.7855 1188.6277,-1347.4471"/>
<text text-anchor="start" x="1011.4231" y="-1381.2" font-family="Times,serif" font-size="14.00" fill="#0000ff">group</text>
</g>
<!-- ERSUD&#45;&gt;S -->
<g id="edge79" class="edge">
<title>ERSUD&#45;&gt;S</title>
<path fill="none" stroke="#000000" d="M791.8218,-1285.059C809.1584,-1296.8933 833.6238,-1311.3581 857.6874,-1318 960.175,-1346.2879 1083.7525,-1341.6112 1163.5102,-1333.8552"/>
<polygon fill="#000000" stroke="#000000" points="1163.9011,-1337.3336 1173.4983,-1332.8454 1163.197,-1330.3691 1163.9011,-1337.3336"/>
<text text-anchor="start" x="1008.7008" y="-1343.2" font-family="Times,serif" font-size="14.00" fill="#0000ff">having</text>
</g>
<!-- ERSUD&#45;&gt;U -->
<g id="edge93" class="edge">
<title>ERSUD&#45;&gt;U</title>
<path fill="none" stroke="#000000" d="M781.4696,-1248.8253C798.2733,-1225.6235 826.1069,-1183.6064 839.6874,-1143 850.3357,-1111.161 836.6582,-1019.1703 857.6874,-993 881.3008,-963.6137 909.4283,-989.8765 937.7534,-965 951.1345,-953.248 943.0834,-941.7154 955.7534,-929.2 1006.4076,-879.1641 1054.7565,-914.1789 1099.7534,-859 1183.5538,-756.2371 1134.5833,-696.6498 1173.8586,-570 1192.8683,-508.7001 1219.8305,-438.4293 1234.7844,-400.5962"/>
<polygon fill="#000000" stroke="#000000" points="1238.0539,-401.8462 1238.4914,-391.2604 1231.548,-399.2629 1238.0539,-401.8462"/>
<text text-anchor="start" x="1019.9785" y="-933.2" font-family="Times,serif" font-size="14.00" fill="#0000ff">set</text>
</g>
<!-- ERSUD&#45;&gt;D -->
<g id="edge99" class="edge">
<title>ERSUD&#45;&gt;D</title>
<path fill="none" stroke="#000000" d="M776.4486,-1248.5614C790.6095,-1220.0977 820.7117,-1164.7994 857.6874,-1127 887.7016,-1096.3172 902.8548,-1097.9874 937.7534,-1073 1011.2565,-1020.3717 1044.5475,-1021.5874 1099.7534,-950 1180.7345,-844.9891 1224.341,-688.6922 1239.5572,-625.2681"/>
<polygon fill="#000000" stroke="#000000" points="1243.0376,-625.7561 1241.9147,-615.221 1236.2227,-624.157 1243.0376,-625.7561"/>
<text text-anchor="start" x="1011.0409" y="-1064.2" font-family="Times,serif" font-size="14.00" fill="#0000ff">delete</text>
</g>
<!-- SUD&#45;&gt;SUD -->
<g id="edge13" class="edge">
<title>SUD&#45;&gt;SUD</title>
<path fill="none" stroke="#000000" d="M1022.8689,-1167.1527C1022.1174,-1176.5391 1023.7456,-1185 1027.7534,-1185 1030.1957,-1185 1031.7543,-1181.8581 1032.4292,-1177.2796"/>
<polygon fill="#000000" stroke="#000000" points="1035.9311,-1177.2227 1032.6379,-1167.1527 1028.9325,-1177.0784 1035.9311,-1177.2227"/>
<text text-anchor="start" x="1015.3095" y="-1189.2" font-family="Times,serif" font-size="14.00" fill="#0000ff">with</text>
</g>
<!-- SUD&#45;&gt;SUD -->
<g id="edge23" class="edge">
<title>SUD&#45;&gt;SUD</title>
<path fill="none" stroke="#000000" d="M1019.5664,-1167.2576C1015.3213,-1184.4023 1018.0503,-1203 1027.7534,-1203 1035.5614,-1203 1038.8535,-1190.9576 1037.6297,-1177.3202"/>
<polygon fill="#000000" stroke="#000000" points="1041.0478,-1176.5402 1035.9404,-1167.2576 1034.1444,-1177.6991 1041.0478,-1176.5402"/>
<text text-anchor="start" x="1014.1475" y="-1207.2" font-family="Times,serif" font-size="14.00" fill="#0000ff">from</text>
</g>
<!-- SUD&#45;&gt;SUD -->
<g id="edge33" class="edge">
<title>SUD&#45;&gt;SUD</title>
<path fill="none" stroke="#000000" d="M1017.5057,-1167.0781C1008.4381,-1191.4094 1011.854,-1221 1027.7534,-1221 1041.6033,-1221 1045.9806,-1198.5465 1040.8854,-1176.675"/>
<polygon fill="#000000" stroke="#000000" points="1044.2313,-1175.6475 1038.0011,-1167.0781 1037.5275,-1177.6624 1044.2313,-1175.6475"/>
<text text-anchor="start" x="1011.0402" y="-1225.2" font-family="Times,serif" font-size="14.00" fill="#0000ff">return</text>
</g>
<!-- SUD&#45;&gt;SUD -->
<g id="edge43" class="edge">
<title>SUD&#45;&gt;SUD</title>
<path fill="none" stroke="#000000" d="M1016.0179,-1167.1124C1001.5877,-1198.2398 1005.4995,-1239 1027.7534,-1239 1047.8341,-1239 1052.9802,-1205.8121 1043.1917,-1176.4604"/>
<polygon fill="#000000" stroke="#000000" points="1046.4256,-1175.1206 1039.4889,-1167.1124 1039.9176,-1177.6986 1046.4256,-1175.1206"/>
<text text-anchor="start" x="1010.6552" y="-1243.2" font-family="Times,serif" font-size="14.00" fill="#0000ff">where</text>
</g>
<!-- SUD&#45;&gt;S -->
<g id="edge52" class="edge">
<title>SUD&#45;&gt;S</title>
<path fill="none" stroke="#000000" d="M1056.8924,-1167.2303C1074.4895,-1178.2148 1097.3798,-1192.4598 1117.7534,-1205 1134.6388,-1215.3932 1140.4303,-1215.7459 1155.8586,-1228.2 1181.6223,-1248.9971 1207.2521,-1276.8804 1224.5324,-1297.0179"/>
<polygon fill="#000000" stroke="#000000" points="1222.0432,-1299.4943 1231.178,-1304.8615 1227.384,-1294.9692 1222.0432,-1299.4943"/>
<text text-anchor="start" x="1122.0381" y="-1232.2" font-family="Times,serif" font-size="14.00" fill="#0000ff">order</text>
</g>
<!-- SUD&#45;&gt;S -->
<g id="edge59" class="edge">
<title>SUD&#45;&gt;S</title>
<path fill="none" stroke="#000000" d="M1100.0616,-1164.1727C1123.6637,-1170.1157 1146.2735,-1177.1842 1155.8586,-1184.2 1194.7545,-1212.6697 1221.3335,-1263.4689 1235.0274,-1295.0818"/>
<polygon fill="#000000" stroke="#000000" points="1231.9298,-1296.7462 1239.0199,-1304.6189 1238.3868,-1294.043 1231.9298,-1296.7462"/>
<text text-anchor="start" x="1123.5795" y="-1188.2" font-family="Times,serif" font-size="14.00" fill="#0000ff">limit</text>
</g>
<!-- SUD&#45;&gt;S -->
<g id="edge66" class="edge">
<title>SUD&#45;&gt;S</title>
<path fill="none" stroke="#000000" d="M1099.9307,-1135.2419C1119.2522,-1134.99 1139.339,-1138.1248 1155.8586,-1148.2 1208.5358,-1180.3273 1231.6944,-1254.2379 1240.7568,-1294.9059"/>
<polygon fill="#000000" stroke="#000000" points="1237.3369,-1295.6513 1242.8132,-1304.7211 1244.1882,-1294.2159 1237.3369,-1295.6513"/>
<text text-anchor="start" x="1120.8705" y="-1152.2" font-family="Times,serif" font-size="14.00" fill="#0000ff">offset</text>
</g>
<!-- SUD&#45;&gt;S -->
<g id="edge73" class="edge">
<title>SUD&#45;&gt;S</title>
<path fill="none" stroke="#000000" d="M1034.9672,-1167.3887C1047.4013,-1196.689 1075.6555,-1253.8339 1117.7534,-1285 1131.3911,-1295.0963 1147.6937,-1302.5254 1164.0251,-1307.9871"/>
<polygon fill="#000000" stroke="#000000" points="1163.0355,-1311.3447 1173.6241,-1310.9809 1165.1197,-1304.6622 1163.0355,-1311.3447"/>
<text text-anchor="start" x="1120.4757" y="-1307.2" font-family="Times,serif" font-size="14.00" fill="#0000ff">group</text>
</g>
<!-- SUD&#45;&gt;S -->
<g id="edge80" class="edge">
<title>SUD&#45;&gt;S</title>
<path fill="none" stroke="#000000" d="M1041.4511,-1167.0833C1057.8636,-1187.852 1087.0189,-1222.0119 1117.7534,-1245 1132.9395,-1256.3585 1139.427,-1254.7323 1155.8586,-1264.2 1174.7252,-1275.0707 1195.0873,-1288.245 1211.6636,-1299.3657"/>
<polygon fill="#000000" stroke="#000000" points="1209.7134,-1302.2721 1219.9588,-1304.9708 1213.6326,-1296.472 1209.7134,-1302.2721"/>
<text text-anchor="start" x="1117.7534" y="-1268.2" font-family="Times,serif" font-size="14.00" fill="#0000ff">having</text>
</g>
<!-- SUD&#45;&gt;U -->
<g id="edge94" class="edge">
<title>SUD&#45;&gt;U</title>
<path fill="none" stroke="#000000" d="M1084.6136,-1130.8133C1090.4014,-1127.0258 1095.6491,-1122.4711 1099.7534,-1117 1108.9547,-1104.7344 1170.1762,-584.8845 1173.8586,-570 1189.2719,-507.6985 1217.5898,-437.8052 1233.7374,-400.3046"/>
<polygon fill="#000000" stroke="#000000" points="1236.9809,-401.6222 1237.7568,-391.0558 1230.561,-398.8321 1236.9809,-401.6222"/>
<text text-anchor="start" x="1129.0311" y="-1000.2" font-family="Times,serif" font-size="14.00" fill="#0000ff">set</text>
</g>
<!-- SUD&#45;&gt;D -->
<g id="edge100" class="edge">
<title>SUD&#45;&gt;D</title>
<path fill="none" stroke="#000000" d="M1078.2774,-1130.8802C1085.8978,-1126.9523 1093.3419,-1122.3402 1099.7534,-1117 1133.6841,-1088.7389 1138.6074,-1075.6495 1155.8586,-1035 1217.8789,-888.8602 1238.2436,-696.6991 1243.9271,-625.3011"/>
<polygon fill="#000000" stroke="#000000" points="1247.4205,-625.5197 1244.69,-615.2828 1240.4407,-624.9881 1247.4205,-625.5197"/>
<text text-anchor="start" x="1120.0935" y="-1104.2" font-family="Times,serif" font-size="14.00" fill="#0000ff">delete</text>
</g>
<!-- M&#45;&gt;M -->
<g id="edge6" class="edge">
<title>M&#45;&gt;M</title>
<path fill="none" stroke="#000000" d="M495.4542,-36.1527C493.7008,-45.5391 497.4998,-54 506.8514,-54 512.55,-54 516.1868,-50.8581 517.7617,-46.2796"/>
<polygon fill="#000000" stroke="#000000" points="521.2642,-46.3093 518.2486,-36.1527 514.2723,-45.973 521.2642,-46.3093"/>
<text text-anchor="start" x="504.9061" y="-58.2" font-family="Times,serif" font-size="14.00" fill="#0000ff">l</text>
</g>
<!-- M&#45;&gt;M -->
<g id="edge8" class="edge">
<title>M&#45;&gt;M</title>
<path fill="none" stroke="#000000" d="M487.7484,-36.2576C477.8431,-53.4023 484.2108,-72 506.8514,-72 525.4238,-72 533.0459,-59.4854 529.7177,-45.5241"/>
<polygon fill="#000000" stroke="#000000" points="532.96,-44.2057 525.9544,-36.2576 526.4745,-46.8397 532.96,-44.2057"/>
<text text-anchor="start" x="496.3605" y="-76.2" font-family="Times,serif" font-size="14.00" fill="#0000ff">raw</text>
</g>
<!-- SIUD&#45;&gt;SUD -->
<g id="edge31" class="edge">
<title>SIUD&#45;&gt;SUD</title>
<path fill="none" stroke="#000000" d="M772.5137,-698.1587C782.5047,-732.1886 808.7174,-805.6629 857.6874,-845 886.5711,-868.202 914.4433,-839.4034 937.7534,-868.2 972.6307,-911.2864 923.8886,-1071.6404 955.7534,-1117 957.6799,-1119.7423 959.897,-1122.2528 962.3316,-1124.5508"/>
<polygon fill="#000000" stroke="#000000" points="960.2109,-1127.3362 970.2144,-1130.8262 964.5708,-1121.8596 960.2109,-1127.3362"/>
<text text-anchor="start" x="881.0072" y="-872.2" font-family="Times,serif" font-size="14.00" fill="#0000ff">return</text>
</g>
<!-- SIUD&#45;&gt;SUD -->
<g id="edge41" class="edge">
<title>SIUD&#45;&gt;SUD</title>
<path fill="none" stroke="#000000" d="M770.3817,-698.0808C777.2873,-737.9441 799.3676,-833.8937 857.6874,-885 885.5512,-909.4174 914.2456,-879.5646 937.7534,-908.2 967.3039,-944.1962 928.7206,-1079.0766 955.7534,-1117 957.6987,-1119.729 959.9311,-1122.2287 962.3779,-1124.5181"/>
<polygon fill="#000000" stroke="#000000" points="960.2736,-1127.3162 970.2883,-1130.7739 964.6157,-1121.8256 960.2736,-1127.3162"/>
<text text-anchor="start" x="880.6222" y="-912.2" font-family="Times,serif" font-size="14.00" fill="#0000ff">where</text>
</g>
<!-- SIUD&#45;&gt;SIUD -->
<g id="edge11" class="edge">
<title>SIUD&#45;&gt;SIUD</title>
<path fill="none" stroke="#000000" d="M755.9284,-698.1527C754.1193,-707.5391 758.039,-716 767.6874,-716 773.5669,-716 777.3191,-712.8581 778.944,-708.2796"/>
<polygon fill="#000000" stroke="#000000" points="782.4465,-708.3139 779.4464,-698.1527 775.4551,-707.967 782.4465,-708.3139"/>
<text text-anchor="start" x="755.2435" y="-720.2" font-family="Times,serif" font-size="14.00" fill="#0000ff">with</text>
</g>
<!-- SIUD&#45;&gt;SIUD -->
<g id="edge21" class="edge">
<title>SIUD&#45;&gt;SIUD</title>
<path fill="none" stroke="#000000" d="M747.9779,-698.2576C737.7582,-715.4023 744.328,-734 767.6874,-734 786.8494,-734 794.7135,-721.4854 791.2797,-707.5241"/>
<polygon fill="#000000" stroke="#000000" points="794.4896,-706.1281 787.3969,-698.2576 788.0335,-708.8333 794.4896,-706.1281"/>
<text text-anchor="start" x="754.0815" y="-738.2" font-family="Times,serif" font-size="14.00" fill="#0000ff">from</text>
</g>
<!-- SIUD&#45;&gt;S -->
<g id="edge50" class="edge">
<title>SIUD&#45;&gt;S</title>
<path fill="none" stroke="#000000" d="M824.5927,-661.9803C891.1287,-643.4851 1004.3122,-620.0467 1099.7534,-640.2 1126.4283,-645.8326 1140.4937,-642.479 1155.8586,-665 1182.1831,-703.585 1166.0345,-1038.9505 1173.8586,-1085 1187.1414,-1163.177 1218.4329,-1251.7022 1235.05,-1295.4739"/>
<polygon fill="#000000" stroke="#000000" points="1231.8017,-1296.7785 1238.6506,-1304.862 1238.3375,-1294.2718 1231.8017,-1296.7785"/>
<text text-anchor="start" x="1012.9855" y="-645.2" font-family="Times,serif" font-size="14.00" fill="#0000ff">order</text>
</g>
<!-- SIUD&#45;&gt;S -->
<g id="edge57" class="edge">
<title>SIUD&#45;&gt;S</title>
<path fill="none" stroke="#000000" d="M779.4312,-698.2984C794.7779,-720.7666 823.7337,-758.5267 857.6874,-780 916.1297,-816.9606 1112.2977,-815.2968 1155.8586,-869 1186.2014,-906.4074 1164.8351,-1037.6864 1173.8586,-1085 1188.7143,-1162.8934 1219.3214,-1251.542 1235.4265,-1295.406"/>
<polygon fill="#000000" stroke="#000000" points="1232.156,-1296.6534 1238.9117,-1304.8149 1238.7202,-1294.2218 1232.156,-1296.6534"/>
<text text-anchor="start" x="1014.5269" y="-842.2" font-family="Times,serif" font-size="14.00" fill="#0000ff">limit</text>
</g>
<!-- SIUD&#45;&gt;S -->
<g id="edge64" class="edge">
<title>SIUD&#45;&gt;S</title>
<path fill="none" stroke="#000000" d="M786.7752,-698.0862C803.9622,-713.3109 830.6145,-734.4042 857.6874,-746 985.5377,-800.7604 1095.4299,-715.7292 1155.8586,-841 1179.4809,-889.9698 1163.9269,-1031.5453 1173.8586,-1085 1188.3439,-1162.9631 1219.1122,-1251.5813 1235.3378,-1295.4227"/>
<polygon fill="#000000" stroke="#000000" points="1232.0724,-1296.6833 1238.8502,-1304.8265 1238.6299,-1294.234 1232.0724,-1296.6833"/>
<text text-anchor="start" x="1011.8179" y="-784.2" font-family="Times,serif" font-size="14.00" fill="#0000ff">offset</text>
</g>
<!-- SIUD&#45;&gt;S -->
<g id="edge71" class="edge">
<title>SIUD&#45;&gt;S</title>
<path fill="none" stroke="#000000" d="M839.8838,-690.4863C923.1101,-703.2546 1054.2825,-725.663 1099.7534,-746.2 1128.3362,-759.1095 1141.1004,-761.3264 1155.8586,-789 1186.8683,-847.1473 1162.2389,-1020.1332 1173.8586,-1085 1187.8407,-1163.055 1218.8279,-1251.6332 1235.2174,-1295.4447"/>
<polygon fill="#000000" stroke="#000000" points="1231.959,-1296.7235 1238.7667,-1304.8418 1238.5075,-1294.2501 1231.959,-1296.7235"/>
<text text-anchor="start" x="1011.4231" y="-751.2" font-family="Times,serif" font-size="14.00" fill="#0000ff">group</text>
</g>
<!-- SIUD&#45;&gt;S -->
<g id="edge78" class="edge">
<title>SIUD&#45;&gt;S</title>
<path fill="none" stroke="#000000" d="M839.8336,-675.7889C923.3528,-672.0269 1055.1522,-669.8463 1099.7534,-690.2 1133.2042,-705.4653 1141.5552,-717.1267 1155.8586,-751 1184.7733,-819.4754 1161.0047,-1011.7899 1173.8586,-1085 1187.5715,-1163.1027 1218.6758,-1251.6602 1235.153,-1295.4561"/>
<polygon fill="#000000" stroke="#000000" points="1231.8984,-1296.7448 1238.722,-1304.8497 1238.442,-1294.2585 1231.8984,-1296.7448"/>
<text text-anchor="start" x="1008.7008" y="-695.2" font-family="Times,serif" font-size="14.00" fill="#0000ff">having</text>
</g>
<!-- SIUD&#45;&gt;I -->
<g id="edge85" class="edge">
<title>SIUD&#45;&gt;I</title>
<path fill="none" stroke="#000000" d="M777.5452,-661.5745C792.2507,-635.3972 822.0551,-587.0863 857.6874,-555.2 888.1388,-527.95 913.7014,-543.0356 937.7534,-510 961.2504,-477.7266 943.8291,-460.0984 955.7534,-422 971.7304,-370.953 997.8832,-314.2926 1013.8844,-281.5427"/>
<polygon fill="#000000" stroke="#000000" points="1017.2181,-282.696 1018.5019,-272.1792 1010.94,-279.6 1017.2181,-282.696"/>
<text text-anchor="start" x="882.1699" y="-560.2" font-family="Times,serif" font-size="14.00" fill="#0000ff">insert</text>
</g>
<!-- SIUD&#45;&gt;U -->
<g id="edge92" class="edge">
<title>SIUD&#45;&gt;U</title>
<path fill="none" stroke="#000000" d="M783.9996,-661.8398C800.9056,-643.9652 828.8534,-616.9537 857.6874,-600 890.1844,-580.8926 905.4908,-591.5006 937.7534,-572 947.1186,-566.3393 947.0807,-561.8735 955.7534,-555.2 1039.1967,-490.9912 1145.963,-428.4576 1203.893,-395.9871"/>
<polygon fill="#000000" stroke="#000000" points="1205.7337,-398.968 1212.76,-391.0382 1202.3222,-392.8556 1205.7337,-398.968"/>
<text text-anchor="start" x="1019.9785" y="-560.2" font-family="Times,serif" font-size="14.00" fill="#0000ff">set</text>
</g>
<!-- SIUD&#45;&gt;D -->
<g id="edge98" class="edge">
<title>SIUD&#45;&gt;D</title>
<path fill="none" stroke="#000000" d="M794.0272,-661.8478C811.541,-650.3012 835.3475,-635.5851 857.6874,-625 891.7549,-608.8582 903.2932,-612.2855 937.7534,-597 946.0799,-593.3066 946.9261,-589.4472 955.7534,-587.2 1024.3095,-569.747 1104.9122,-574.3817 1163.7354,-582.1283"/>
<polygon fill="#000000" stroke="#000000" points="1163.3357,-585.6062 1173.7192,-583.5003 1164.2888,-578.6713 1163.3357,-585.6062"/>
<text text-anchor="start" x="1011.0409" y="-592.2" font-family="Times,serif" font-size="14.00" fill="#0000ff">delete</text>
</g>
<!-- SV&#45;&gt;SV -->
<g id="edge53" class="edge">
<title>SV&#45;&gt;SV</title>
<path fill="none" stroke="#000000" d="M1021.2407,-1776.1527C1020.2388,-1785.5391 1022.4097,-1794 1027.7534,-1794 1031.0097,-1794 1033.0879,-1790.8581 1033.9878,-1786.2796"/>
<polygon fill="#000000" stroke="#000000" points="1037.49,-1786.2451 1034.2661,-1776.1527 1030.4927,-1786.0528 1037.49,-1786.2451"/>
<text text-anchor="start" x="1012.9855" y="-1798.2" font-family="Times,serif" font-size="14.00" fill="#0000ff">order</text>
</g>
<!-- SV&#45;&gt;SV -->
<g id="edge60" class="edge">
<title>SV&#45;&gt;SV</title>
<path fill="none" stroke="#000000" d="M1016.8374,-1776.2576C1011.1772,-1793.4023 1014.8159,-1812 1027.7534,-1812 1038.164,-1812 1042.5535,-1799.9576 1040.9217,-1786.3202"/>
<polygon fill="#000000" stroke="#000000" points="1044.2692,-1785.2516 1038.6694,-1776.2576 1037.4383,-1786.7807 1044.2692,-1785.2516"/>
<text text-anchor="start" x="1014.5269" y="-1816.2" font-family="Times,serif" font-size="14.00" fill="#0000ff">limit</text>
</g>
<!-- SV&#45;&gt;SV -->
<g id="edge67" class="edge">
<title>SV&#45;&gt;SV</title>
<path fill="none" stroke="#000000" d="M1014.0898,-1776.0781C1001.9997,-1800.4094 1006.5542,-1830 1027.7534,-1830 1046.3027,-1830 1052.1084,-1807.3447 1045.1706,-1785.3808"/>
<polygon fill="#000000" stroke="#000000" points="1048.4046,-1784.042 1041.417,-1776.0781 1041.9131,-1786.6613 1048.4046,-1784.042"/>
<text text-anchor="start" x="1011.8179" y="-1834.2" font-family="Times,serif" font-size="14.00" fill="#0000ff">offset</text>
</g>
<!-- SV&#45;&gt;S -->
<g id="edge14" class="edge">
<title>SV&#45;&gt;S</title>
<path fill="none" stroke="#000000" d="M1044.2437,-1776.2249C1070.2193,-1802.7554 1121.2631,-1845.8621 1155.8586,-1817 1228.1289,-1756.7068 1242.5133,-1446.6727 1245.2457,-1351.0905"/>
<polygon fill="#000000" stroke="#000000" points="1248.7463,-1351.1107 1245.5124,-1341.0215 1241.7488,-1350.9254 1248.7463,-1351.1107"/>
<text text-anchor="start" x="1124.3621" y="-1830.2" font-family="Times,serif" font-size="14.00" fill="#0000ff">with</text>
</g>
<!-- SV&#45;&gt;S -->
<g id="edge24" class="edge">
<title>SV&#45;&gt;S</title>
<path fill="none" stroke="#000000" d="M1062.0495,-1776.0838C1090.2935,-1788.2019 1129.7953,-1798.4038 1155.8586,-1777 1222.3179,-1722.4221 1240.5602,-1441.7163 1244.7542,-1351.1824"/>
<polygon fill="#000000" stroke="#000000" points="1248.2543,-1351.257 1245.1984,-1341.1124 1241.261,-1350.9485 1248.2543,-1351.257"/>
<text text-anchor="start" x="1123.2001" y="-1793.2" font-family="Times,serif" font-size="14.00" fill="#0000ff">from</text>
</g>
<!-- SV&#45;&gt;S -->
<g id="edge34" class="edge">
<title>SV&#45;&gt;S</title>
<path fill="none" stroke="#000000" d="M1099.9295,-1753.2049C1124.1866,-1750.1449 1147.2791,-1745.148 1155.8586,-1737 1212.1904,-1683.5013 1236.8367,-1436.405 1243.733,-1351.6354"/>
<polygon fill="#000000" stroke="#000000" points="1247.2388,-1351.6989 1244.5387,-1341.4539 1240.2607,-1351.1466 1247.2388,-1351.6989"/>
<text text-anchor="start" x="1120.0928" y="-1754.2" font-family="Times,serif" font-size="14.00" fill="#0000ff">return</text>
</g>
<!-- SV&#45;&gt;S -->
<g id="edge44" class="edge">
<title>SV&#45;&gt;S</title>
<path fill="none" stroke="#000000" d="M1066.5944,-1739.9898C1103.7188,-1722.7029 1154.2927,-1698.9314 1155.8586,-1697 1199.7444,-1642.8714 1231.8868,-1428.465 1242.2692,-1351.0583"/>
<polygon fill="#000000" stroke="#000000" points="1245.748,-1351.4485 1243.5887,-1341.0761 1238.8084,-1350.5311 1245.748,-1351.4485"/>
<text text-anchor="start" x="1119.7078" y="-1718.2" font-family="Times,serif" font-size="14.00" fill="#0000ff">where</text>
</g>
<!-- SV&#45;&gt;S -->
<g id="edge74" class="edge">
<title>SV&#45;&gt;S</title>
<path fill="none" stroke="#000000" d="M1044.8094,-1739.8588C1062.0696,-1722.1668 1090.0874,-1695.2177 1117.7534,-1676.2 1133.3813,-1665.4574 1143.8806,-1671.7025 1155.8586,-1657 1194.8241,-1609.1714 1229.2139,-1422.987 1241.2753,-1351.328"/>
<polygon fill="#000000" stroke="#000000" points="1244.7663,-1351.6704 1242.9539,-1341.2318 1237.8611,-1350.5223 1244.7663,-1351.6704"/>
<text text-anchor="start" x="1120.4757" y="-1680.2" font-family="Times,serif" font-size="14.00" fill="#0000ff">group</text>
</g>
<!-- SV&#45;&gt;S -->
<g id="edge81" class="edge">
<title>SV&#45;&gt;S</title>
<path fill="none" stroke="#000000" d="M1038.8777,-1776.0125C1061.7415,-1810.8651 1115.2736,-1881.2086 1155.8586,-1847 1194.4145,-1814.5017 1232.7233,-1455.6962 1243.115,-1351.3214"/>
<polygon fill="#000000" stroke="#000000" points="1246.6126,-1351.5173 1244.1121,-1341.2218 1239.6464,-1350.8295 1246.6126,-1351.5173"/>
<text text-anchor="start" x="1117.7534" y="-1860.2" font-family="Times,serif" font-size="14.00" fill="#0000ff">having</text>
</g>
<!-- SV&#45;&gt;V -->
<g id="edge88" class="edge">
<title>SV&#45;&gt;V</title>
<path fill="none" stroke="#000000" d="M1035.579,-1739.7594C1049.5846,-1706.7114 1079.3739,-1634.5546 1099.7534,-1572 1103.9592,-1559.0903 1209.4395,-1161.3895 1238.5041,-1051.7487"/>
<polygon fill="#000000" stroke="#000000" points="1241.8931,-1052.6231 1241.0723,-1042.0601 1235.1268,-1050.8295 1241.8931,-1052.6231"/>
<text text-anchor="start" x="1118.9238" y="-1502.2" font-family="Times,serif" font-size="14.00" fill="#0000ff">values</text>
</g>
<!-- S&#45;&gt;S -->
<g id="edge15" class="edge">
<title>S&#45;&gt;S</title>
<path fill="none" stroke="#000000" d="M1243.6877,-1341.1527C1243.3537,-1350.5391 1244.0774,-1359 1245.8586,-1359 1246.944,-1359 1247.6368,-1355.8581 1247.9367,-1351.2796"/>
<polygon fill="#000000" stroke="#000000" points="1251.4377,-1351.1844 1248.0295,-1341.1527 1244.438,-1351.1202 1251.4377,-1351.1844"/>
<text text-anchor="start" x="1233.4147" y="-1363.2" font-family="Times,serif" font-size="14.00" fill="#0000ff">with</text>
</g>
<!-- S&#45;&gt;S -->
<g id="edge25" class="edge">
<title>S&#45;&gt;S</title>
<path fill="none" stroke="#000000" d="M1242.2199,-1341.2576C1240.3332,-1358.4023 1241.5461,-1377 1245.8586,-1377 1249.3288,-1377 1250.792,-1364.9576 1250.248,-1351.3202"/>
<polygon fill="#000000" stroke="#000000" points="1253.7317,-1350.9695 1249.4973,-1341.2576 1246.7511,-1351.4904 1253.7317,-1350.9695"/>
<text text-anchor="start" x="1232.2527" y="-1381.2" font-family="Times,serif" font-size="14.00" fill="#0000ff">from</text>
</g>
<!-- S&#45;&gt;S -->
<g id="edge35" class="edge">
<title>S&#45;&gt;S</title>
<path fill="none" stroke="#000000" d="M1241.3041,-1341.0781C1237.274,-1365.4094 1238.7922,-1395 1245.8586,-1395 1251.9589,-1395 1253.9243,-1372.9475 1251.755,-1351.2636"/>
<polygon fill="#000000" stroke="#000000" points="1255.1893,-1350.5353 1250.4131,-1341.0781 1248.2493,-1351.4496 1255.1893,-1350.5353"/>
<text text-anchor="start" x="1229.1454" y="-1399.2" font-family="Times,serif" font-size="14.00" fill="#0000ff">return</text>
</g>
<!-- S&#45;&gt;S -->
<g id="edge45" class="edge">
<title>S&#45;&gt;S</title>
<path fill="none" stroke="#000000" d="M1240.6428,-1341.1124C1234.2294,-1372.2398 1235.968,-1413 1245.8586,-1413 1254.7061,-1413 1257.0304,-1380.3843 1252.8316,-1351.2236"/>
<polygon fill="#000000" stroke="#000000" points="1256.235,-1350.3654 1251.0744,-1341.1124 1249.3383,-1351.564 1256.235,-1350.3654"/>
<text text-anchor="start" x="1228.7604" y="-1417.2" font-family="Times,serif" font-size="14.00" fill="#0000ff">where</text>
</g>
<!-- S&#45;&gt;S -->
<g id="edge54" class="edge">
<title>S&#45;&gt;S</title>
<path fill="none" stroke="#000000" d="M1240.1704,-1341.0577C1231.1891,-1378.7886 1233.0852,-1431 1245.8586,-1431 1257.5343,-1431 1260.1219,-1387.3768 1253.6213,-1351.0637"/>
<polygon fill="#000000" stroke="#000000" points="1257.0041,-1350.1389 1251.5468,-1341.0577 1250.1498,-1351.56 1257.0041,-1350.1389"/>
<text text-anchor="start" x="1231.0907" y="-1435.2" font-family="Times,serif" font-size="14.00" fill="#0000ff">order</text>
</g>
<!-- S&#45;&gt;S -->
<g id="edge61" class="edge">
<title>S&#45;&gt;S</title>
<path fill="none" stroke="#000000" d="M1239.795,-1341.066C1228.1577,-1385.2604 1230.1789,-1449 1245.8586,-1449 1260.4052,-1449 1263.196,-1394.1399 1254.2312,-1350.922"/>
<polygon fill="#000000" stroke="#000000" points="1257.611,-1350.0041 1251.9222,-1341.066 1250.7955,-1351.6008 1257.611,-1350.0041"/>
<text text-anchor="start" x="1232.6321" y="-1453.2" font-family="Times,serif" font-size="14.00" fill="#0000ff">limit</text>
</g>
<!-- S&#45;&gt;S -->
<g id="edge68" class="edge">
<title>S&#45;&gt;S</title>
<path fill="none" stroke="#000000" d="M1239.4354,-1341.2856C1225.1375,-1391.8502 1227.2785,-1467 1245.8586,-1467 1263.2774,-1467 1266.2479,-1400.9504 1254.77,-1351.0302"/>
<polygon fill="#000000" stroke="#000000" points="1258.1471,-1350.1088 1252.2818,-1341.2856 1251.3647,-1351.8406 1258.1471,-1350.1088"/>
<text text-anchor="start" x="1229.9231" y="-1471.2" font-family="Times,serif" font-size="14.00" fill="#0000ff">offset</text>
</g>
<!-- S&#45;&gt;S -->
<g id="edge75" class="edge">
<title>S&#45;&gt;S</title>
<path fill="none" stroke="#000000" d="M1239.177,-1341.3257C1222.1158,-1398.2021 1224.343,-1485 1245.8586,-1485 1266.1556,-1485 1269.2872,-1407.7562 1255.2536,-1351.2571"/>
<polygon fill="#000000" stroke="#000000" points="1258.5521,-1350.0497 1252.5402,-1341.3257 1251.7996,-1351.8947 1258.5521,-1350.0497"/>
<text text-anchor="start" x="1229.5283" y="-1489.2" font-family="Times,serif" font-size="14.00" fill="#0000ff">group</text>
</g>
<!-- S&#45;&gt;S -->
<g id="edge82" class="edge">
<title>S&#45;&gt;S</title>
<path fill="none" stroke="#000000" d="M1238.9768,-1341.3087C1219.0959,-1404.4453 1221.3899,-1503 1245.8586,-1503 1269.0848,-1503 1272.3311,-1414.2006 1255.5976,-1351.1836"/>
<polygon fill="#000000" stroke="#000000" points="1258.882,-1349.9419 1252.7404,-1341.3087 1252.1578,-1351.8875 1258.882,-1349.9419"/>
<text text-anchor="start" x="1226.806" y="-1507.2" font-family="Times,serif" font-size="14.00" fill="#0000ff">having</text>
</g>
<!-- I&#45;&gt;I -->
<g id="edge16" class="edge">
<title>I&#45;&gt;I</title>
<path fill="none" stroke="#000000" d="M1022.8689,-272.1527C1022.1174,-281.5391 1023.7456,-290 1027.7534,-290 1030.1957,-290 1031.7543,-286.8581 1032.4292,-282.2796"/>
<polygon fill="#000000" stroke="#000000" points="1035.9311,-282.2227 1032.6379,-272.1527 1028.9325,-282.0784 1035.9311,-282.2227"/>
<text text-anchor="start" x="1015.3095" y="-294.2" font-family="Times,serif" font-size="14.00" fill="#0000ff">with</text>
</g>
<!-- I&#45;&gt;I -->
<g id="edge26" class="edge">
<title>I&#45;&gt;I</title>
<path fill="none" stroke="#000000" d="M1019.5664,-272.2576C1015.3213,-289.4023 1018.0503,-308 1027.7534,-308 1035.5614,-308 1038.8535,-295.9576 1037.6297,-282.3202"/>
<polygon fill="#000000" stroke="#000000" points="1041.0478,-281.5402 1035.9404,-272.2576 1034.1444,-282.6991 1041.0478,-281.5402"/>
<text text-anchor="start" x="1014.1475" y="-312.2" font-family="Times,serif" font-size="14.00" fill="#0000ff">from</text>
</g>
<!-- I&#45;&gt;I -->
<g id="edge36" class="edge">
<title>I&#45;&gt;I</title>
<path fill="none" stroke="#000000" d="M1017.5057,-272.0781C1008.4381,-296.4094 1011.854,-326 1027.7534,-326 1041.6033,-326 1045.9806,-303.5465 1040.8854,-281.675"/>
<polygon fill="#000000" stroke="#000000" points="1044.2313,-280.6475 1038.0011,-272.0781 1037.5275,-282.6624 1044.2313,-280.6475"/>
<text text-anchor="start" x="1011.0402" y="-330.2" font-family="Times,serif" font-size="14.00" fill="#0000ff">return</text>
</g>
<!-- I&#45;&gt;I -->
<g id="edge86" class="edge">
<title>I&#45;&gt;I</title>
<path fill="none" stroke="#000000" d="M1016.0179,-272.1124C1001.5877,-303.2398 1005.4995,-344 1027.7534,-344 1047.8341,-344 1052.9802,-310.8121 1043.1917,-281.4604"/>
<polygon fill="#000000" stroke="#000000" points="1046.4256,-280.1206 1039.4889,-272.1124 1039.9176,-282.6986 1046.4256,-280.1206"/>
<text text-anchor="start" x="1012.2029" y="-348.2" font-family="Times,serif" font-size="14.00" fill="#0000ff">insert</text>
</g>
<!-- U&#45;&gt;U -->
<g id="edge17" class="edge">
<title>U&#45;&gt;U</title>
<path fill="none" stroke="#000000" d="M1241.951,-391.1527C1241.3498,-400.5391 1242.6524,-409 1245.8586,-409 1247.8124,-409 1249.0593,-405.8581 1249.5993,-401.2796"/>
<polygon fill="#000000" stroke="#000000" points="1253.1008,-401.2091 1249.7662,-391.1527 1246.1018,-401.0936 1253.1008,-401.2091"/>
<text text-anchor="start" x="1233.4147" y="-413.2" font-family="Times,serif" font-size="14.00" fill="#0000ff">with</text>
</g>
<!-- U&#45;&gt;U -->
<g id="edge27" class="edge">
<title>U&#45;&gt;U</title>
<path fill="none" stroke="#000000" d="M1239.309,-391.2576C1235.9129,-408.4023 1238.0961,-427 1245.8586,-427 1252.105,-427 1254.7387,-414.9576 1253.7596,-401.3202"/>
<polygon fill="#000000" stroke="#000000" points="1257.2082,-400.7028 1252.4082,-391.2576 1250.2705,-401.6345 1257.2082,-400.7028"/>
<text text-anchor="start" x="1232.2527" y="-431.2" font-family="Times,serif" font-size="14.00" fill="#0000ff">from</text>
</g>
<!-- U&#45;&gt;U -->
<g id="edge37" class="edge">
<title>U&#45;&gt;U</title>
<path fill="none" stroke="#000000" d="M1237.6605,-391.0781C1230.4064,-415.4094 1233.1391,-445 1245.8586,-445 1256.8888,-445 1260.4088,-422.7475 1256.4186,-400.9693"/>
<polygon fill="#000000" stroke="#000000" points="1259.7836,-399.9918 1254.0567,-391.0781 1252.975,-401.6176 1259.7836,-399.9918"/>
<text text-anchor="start" x="1229.1454" y="-449.2" font-family="Times,serif" font-size="14.00" fill="#0000ff">return</text>
</g>
<!-- U&#45;&gt;U -->
<g id="edge46" class="edge">
<title>U&#45;&gt;U</title>
<path fill="none" stroke="#000000" d="M1236.4702,-391.1124C1224.926,-422.2398 1228.0555,-463 1245.8586,-463 1261.8536,-463 1266.0042,-430.0988 1258.3103,-400.8418"/>
<polygon fill="#000000" stroke="#000000" points="1261.5886,-399.5997 1255.247,-391.1124 1254.9118,-401.7019 1261.5886,-399.5997"/>
<text text-anchor="start" x="1228.7604" y="-467.2" font-family="Times,serif" font-size="14.00" fill="#0000ff">where</text>
</g>
<!-- U&#45;&gt;U -->
<g id="edge95" class="edge">
<title>U&#45;&gt;U</title>
<path fill="none" stroke="#000000" d="M1235.6199,-391.0577C1219.4535,-428.7886 1222.8664,-481 1245.8586,-481 1266.9647,-481 1271.572,-437.0032 1259.6805,-400.5985"/>
<polygon fill="#000000" stroke="#000000" points="1262.8898,-399.1887 1256.0973,-391.0577 1256.3367,-401.6498 1262.8898,-399.1887"/>
<text text-anchor="start" x="1238.0837" y="-485.2" font-family="Times,serif" font-size="14.00" fill="#0000ff">set</text>
</g>
<!-- D&#45;&gt;D -->
<g id="edge18" class="edge">
<title>D&#45;&gt;D</title>
<path fill="none" stroke="#000000" d="M1241.951,-615.1527C1241.3498,-624.5391 1242.6524,-633 1245.8586,-633 1247.8124,-633 1249.0593,-629.8581 1249.5993,-625.2796"/>
<polygon fill="#000000" stroke="#000000" points="1253.1008,-625.2091 1249.7662,-615.1527 1246.1018,-625.0936 1253.1008,-625.2091"/>
<text text-anchor="start" x="1233.4147" y="-637.2" font-family="Times,serif" font-size="14.00" fill="#0000ff">with</text>
</g>
<!-- D&#45;&gt;D -->
<g id="edge28" class="edge">
<title>D&#45;&gt;D</title>
<path fill="none" stroke="#000000" d="M1239.309,-615.2576C1235.9129,-632.4023 1238.0961,-651 1245.8586,-651 1252.105,-651 1254.7387,-638.9576 1253.7596,-625.3202"/>
<polygon fill="#000000" stroke="#000000" points="1257.2082,-624.7028 1252.4082,-615.2576 1250.2705,-625.6345 1257.2082,-624.7028"/>
<text text-anchor="start" x="1232.2527" y="-655.2" font-family="Times,serif" font-size="14.00" fill="#0000ff">from</text>
</g>
<!-- D&#45;&gt;D -->
<g id="edge38" class="edge">
<title>D&#45;&gt;D</title>
<path fill="none" stroke="#000000" d="M1237.6605,-615.0781C1230.4064,-639.4094 1233.1391,-669 1245.8586,-669 1256.8888,-669 1260.4088,-646.7475 1256.4186,-624.9693"/>
<polygon fill="#000000" stroke="#000000" points="1259.7836,-623.9918 1254.0567,-615.0781 1252.975,-625.6176 1259.7836,-623.9918"/>
<text text-anchor="start" x="1229.1454" y="-673.2" font-family="Times,serif" font-size="14.00" fill="#0000ff">return</text>
</g>
<!-- D&#45;&gt;D -->
<g id="edge47" class="edge">
<title>D&#45;&gt;D</title>
<path fill="none" stroke="#000000" d="M1236.4702,-615.1124C1224.926,-646.2398 1228.0555,-687 1245.8586,-687 1261.8536,-687 1266.0042,-654.0988 1258.3103,-624.8418"/>
<polygon fill="#000000" stroke="#000000" points="1261.5886,-623.5997 1255.247,-615.1124 1254.9118,-625.7019 1261.5886,-623.5997"/>
<text text-anchor="start" x="1228.7604" y="-691.2" font-family="Times,serif" font-size="14.00" fill="#0000ff">where</text>
</g>
<!-- D&#45;&gt;D -->
<g id="edge101" class="edge">
<title>D&#45;&gt;D</title>
<path fill="none" stroke="#000000" d="M1235.6199,-615.0577C1219.4535,-652.7886 1222.8664,-705 1245.8586,-705 1266.9647,-705 1271.572,-661.0032 1259.6805,-624.5985"/>
<polygon fill="#000000" stroke="#000000" points="1262.8898,-623.1887 1256.0973,-615.0577 1256.3367,-625.6498 1262.8898,-623.1887"/>
<text text-anchor="start" x="1229.1461" y="-709.2" font-family="Times,serif" font-size="14.00" fill="#0000ff">delete</text>
</g>
<!-- V&#45;&gt;V -->
<g id="edge89" class="edge">
<title>V&#45;&gt;V</title>
<path fill="none" stroke="#000000" d="M1226.3205,-1042.1527C1223.3147,-1051.5391 1229.8274,-1060 1245.8586,-1060 1255.6276,-1060 1261.8621,-1056.8581 1264.5619,-1052.2796"/>
<polygon fill="#000000" stroke="#000000" points="1268.0633,-1052.4065 1265.3967,-1042.1527 1261.0869,-1051.8313 1268.0633,-1052.4065"/>
<text text-anchor="start" x="1227.9764" y="-1064.2" font-family="Times,serif" font-size="14.00" fill="#0000ff">values</text>
</g>
</g>
</svg>
